<svg width="12" height="12" viewBox="0 0 12 12" fill="none" xmlns="http://www.w3.org/2000/svg">
<path d="M10 5C10 7.209 6 11 6 11C6 11 2 7.209 2 5C2 3.93913 2.42143 2.92172 3.17157 2.17157C3.92172 1.42143 4.93913 1 6 1C7.06087 1 8.07828 1.42143 8.82843 2.17157C9.57857 2.92172 10 3.93913 10 5Z" fill="url(#paint0_radial_2055_288)"/>
<path d="M6.00039 5.4002C6.15952 5.4002 6.31213 5.33698 6.42465 5.22446C6.53718 5.11194 6.60039 4.95933 6.60039 4.8002C6.60039 4.64107 6.53718 4.48845 6.42465 4.37593C6.31213 4.26341 6.15952 4.2002 6.00039 4.2002C5.84126 4.2002 5.68865 4.26341 5.57613 4.37593C5.4636 4.48845 5.40039 4.64107 5.40039 4.8002C5.40039 4.95933 5.4636 5.11194 5.57613 5.22446C5.68865 5.33698 5.84126 5.4002 6.00039 5.4002Z" fill="white" stroke="white" stroke-width="1.25" stroke-linecap="round" stroke-linejoin="round"/>
<defs>
<radialGradient id="paint0_radial_2055_288" cx="0" cy="0" r="1" gradientUnits="userSpaceOnUse" gradientTransform="translate(2 -0.627907) rotate(60.2304) scale(13.3958 12.2027)">
<stop offset="0.046875" stop-color="#11CF74"/>
<stop offset="0.983052" stop-color="#08C7B0"/>
</radialGradient>
</defs>
</svg>
