<svg width="17.000000" height="21.000000" viewBox="0 0 17 21" fill="none" xmlns="http://www.w3.org/2000/svg" xmlns:xlink="http://www.w3.org/1999/xlink">
	<desc>
			Created with Pixso.
	</desc>
	<defs/>
	<path id="Union" d="M0.03 4.1L6.39 -0.77C7.04 -1.28 8 -0.81 8 0.02L8 2.59C9.78 2.59 11.52 3.13 13 4.15C14.48 5.16 15.63 6.59 16.31 8.27C16.99 9.95 17.17 11.81 16.82 13.59C16.47 15.37 15.62 17.01 14.36 18.3C13.1 19.59 11.5 20.46 9.75 20.82C8 21.17 6.2 20.99 4.55 20.29C2.91 19.6 1.5 18.42 0.51 16.91C-0.06 16.02 -0.48 15.05 -0.73 14.03C-1.03 12.82 0.01 11.79 1.25 11.79C2.5 11.79 3.47 12.86 4.05 13.97C4.12 14.09 4.19 14.22 4.27 14.34C4.76 15.09 5.46 15.68 6.28 16.03C7.1 16.37 8 16.46 8.87 16.29C9.74 16.11 10.54 15.67 11.16 15.03C11.79 14.39 12.22 13.58 12.39 12.69C12.56 11.8 12.47 10.88 12.13 10.04C11.8 9.2 11.22 8.49 10.48 7.99C9.75 7.48 8.88 7.21 8 7.21L8 9.77C8 10.6 7.04 11.07 6.39 10.56L0.03 5.69C-0.49 5.29 -0.49 4.5 0.03 4.1Z" fill="#FCFFFC" fill-opacity="1.000000" fill-rule="nonzero"/>
</svg>
