<svg width="22" height="22" viewBox="0 0 22 22" fill="none" xmlns="http://www.w3.org/2000/svg">
<path d="M3.66667 7.79134H5.27083M5.27083 7.79134C5.69628 7.79134 6.10431 7.96035 6.40515 8.26119C6.70599 8.56203 6.875 8.97006 6.875 9.39551C6.875 9.82096 6.70599 10.229 6.40515 10.5298C6.10431 10.8307 5.69628 10.9997 5.27083 10.9997H2.75M5.27083 7.79134C5.69628 7.79134 6.10431 7.62233 6.40515 7.32149C6.70599 7.02065 6.875 6.61263 6.875 6.18717C6.875 5.76172 6.70599 5.3537 6.40515 5.05286C6.10431 4.75202 5.69628 4.58301 5.27083 4.58301H2.75" stroke="#252B5C" stroke-width="1.4" stroke-linecap="round" stroke-linejoin="round"/>
<path d="M19.7998 14.2998C19.7998 16.5732 16.5671 18.4436 12.4205 18.6756M3.2998 14.2998C3.2998 16.5311 6.41389 18.3742 10.4498 18.661L7.1498 20.8998M10.4498 18.6998L8.2498 15.6198" stroke="#252B5C" stroke-width="1.4" stroke-linecap="round" stroke-linejoin="round"/>
<path d="M12.8337 4.58301H11.917C11.1876 4.58301 10.4882 4.87274 9.97245 5.38846C9.45672 5.90419 9.16699 6.60366 9.16699 7.33301V9.16634M9.16699 9.16634C9.16699 9.65257 9.36015 10.1189 9.70396 10.4627C10.0478 10.8065 10.5141 10.9997 11.0003 10.9997H11.4587C11.9449 10.9997 12.4112 10.8065 12.755 10.4627C13.0988 10.1189 13.292 9.65257 13.292 9.16634V8.70801C13.292 8.22178 13.0988 7.75546 12.755 7.41165C12.4112 7.06783 11.9449 6.87467 11.4587 6.87467H11.0003C10.5141 6.87467 10.0478 7.06783 9.70396 7.41165C9.36015 7.75546 9.16699 8.22178 9.16699 8.70801V9.16634Z" stroke="#252B5C" stroke-width="1.4" stroke-linecap="round" stroke-linejoin="round"/>
<path d="M15.583 7.79134V6.41634C15.583 5.93011 15.7762 5.4638 16.12 5.11998C16.4638 4.77616 16.9301 4.58301 17.4163 4.58301H17.8747C18.3609 4.58301 18.8272 4.77616 19.171 5.11998C19.5149 5.4638 19.708 5.93011 19.708 6.41634V9.16634C19.708 9.65257 19.5149 10.1189 19.171 10.4627C18.8272 10.8065 18.3609 10.9997 17.8747 10.9997H17.4163C16.9301 10.9997 16.4638 10.8065 16.12 10.4627C15.7762 10.1189 15.583 9.65257 15.583 9.16634V7.79134Z" stroke="#252B5C" stroke-width="1.4" stroke-linecap="round" stroke-linejoin="round"/>
<ellipse cx="19.2502" cy="1.64961" rx="0.549999" ry="0.55" fill="#252B5C" stroke="#252B5C" stroke-width="1.4"/>
</svg>
