<svg width="30.000000" height="27.000000" viewBox="0 0 30 27" fill="none" xmlns="http://www.w3.org/2000/svg" xmlns:xlink="http://www.w3.org/1999/xlink">
	<desc>
			Created with Pixso.
	</desc>
	<defs/>
	<path id="Vector" d="M29.87 8.68C29.88 11 28.99 13.24 27.39 14.91C23.73 18.73 20.18 22.71 16.38 26.39C15.51 27.22 14.13 27.19 13.3 26.32L2.36 14.91C-0.95 11.46 -0.95 5.9 2.36 2.45C3.14 1.62 4.08 0.97 5.12 0.52C6.16 0.07 7.28 -0.16 8.42 -0.16C9.55 -0.16 10.67 0.07 11.71 0.52C12.75 0.97 13.69 1.62 14.48 2.45L14.87 2.86L15.27 2.45C16.06 1.62 17 0.97 18.04 0.52C19.08 0.07 20.2 -0.16 21.33 -0.17C23.61 -0.17 25.79 0.78 27.39 2.45C28.99 4.12 29.88 6.36 29.87 8.68Z" fill="#FD4E4E" fill-opacity="1.000000" fill-rule="nonzero"/>
</svg>
