<svg width="20" height="21" viewBox="0 0 20 21" fill="none" xmlns="http://www.w3.org/2000/svg">
<path d="M11.2501 6.16772C11.2501 6.49535 11.1185 6.80957 10.8841 7.04124C10.6497 7.27292 10.3317 7.40307 10.0003 7.40307C9.66877 7.40307 9.35086 7.27292 9.11647 7.04124C8.88207 6.80957 8.75039 6.49535 8.75039 6.16772C8.75039 5.84008 8.88207 5.52586 9.11647 5.29419C9.35086 5.06252 9.66877 4.93236 10.0003 4.93236C10.3317 4.93236 10.6497 5.06252 10.8841 5.29419C11.1185 5.52586 11.2501 5.84008 11.2501 6.16772ZM19.9993 16.4623V10.9774C20.0303 8.43867 19.0886 5.98233 17.3631 4.10152C15.6376 2.22072 13.2562 1.0547 10.6969 0.837577C9.26837 0.738796 7.83509 0.944427 6.49398 1.44056C5.15286 1.93668 3.93521 2.71174 2.9234 3.71327C1.91159 4.71481 1.12924 5.91947 0.629264 7.24573C0.129292 8.572 -0.0766303 9.98894 0.0254292 11.4007C0.393726 16.6336 5.06909 20.5802 10.9027 20.5802H15.833C16.9376 20.5789 17.9965 20.1446 18.7775 19.3726C19.5586 18.6007 19.9979 17.5541 19.9993 16.4623ZM10.5835 2.48142C12.722 2.6684 14.7097 3.64835 16.1472 5.22436C17.5847 6.80038 18.3655 8.8557 18.3328 10.9774L18.3328 16.4623C18.3328 17.1176 18.0694 17.746 17.6006 18.2094C17.1318 18.6727 16.496 18.933 15.833 18.933H10.9027C5.87484 18.933 2.00106 15.7211 1.6886 11.287C1.60656 10.1576 1.76107 9.02352 2.14245 7.95574C2.52384 6.88796 3.12391 5.90939 3.90518 5.08116C4.68645 4.25293 5.63214 3.59284 6.68315 3.14213C7.73416 2.69142 8.86792 2.45977 10.0136 2.46166C10.2027 2.46166 10.3936 2.46907 10.5835 2.48142ZM11.6668 15.6388V10.6973C11.6668 10.2605 11.4912 9.84154 11.1787 9.53265C10.8661 9.22375 10.4422 9.05021 10.0003 9.05021H9.16701C8.94602 9.05021 8.73408 9.13698 8.57781 9.29143C8.42155 9.44588 8.33376 9.65536 8.33376 9.87378C8.33376 10.0922 8.42155 10.3017 8.57781 10.4561C8.73408 10.6106 8.94602 10.6973 9.16701 10.6973H10.0003V15.6388C10.0003 15.8572 10.088 16.0667 10.2443 16.2211C10.4006 16.3756 10.6125 16.4623 10.8335 16.4623C11.0545 16.4623 11.2664 16.3756 11.4227 16.2211C11.579 16.0667 11.6668 15.8572 11.6668 15.6388Z" fill="#374957"/>
</svg>
