<svg width="20" height="17" viewBox="0 0 20 17" fill="none" xmlns="http://www.w3.org/2000/svg">
<path d="M12.5773 3.59444C12.5773 2.43016 11.5093 1.48633 10.192 1.48633C8.87459 1.48633 7.80664 2.43016 7.80664 3.59444V7.81065C7.80664 8.97493 8.87459 9.91876 10.192 9.91876C11.5093 9.91876 12.5773 8.97493 12.5773 7.81065V3.59444Z" stroke="#A1A5C1" stroke-width="1.09622"/>
<path d="M4.62695 7.10791V7.81061C4.62695 9.11519 5.21334 10.3663 6.25712 11.2888C7.3009 12.2113 8.71657 12.7295 10.1927 12.7295C11.6688 12.7295 13.0845 12.2113 14.1283 11.2888C15.1721 10.3663 15.7585 9.11519 15.7585 7.81061V7.10791" stroke="#A1A5C1" stroke-width="1.09622" stroke-linecap="round" stroke-linejoin="round"/>
<path d="M10.192 15.5403H12.5773M10.192 12.7295V15.5403V12.7295ZM10.192 15.5403H7.80664H10.192Z" stroke="#A1A5C1" stroke-width="1.09622" stroke-linecap="round" stroke-linejoin="round"/>
</svg>
