<svg width="30.000000" height="30.000000" viewBox="0 0 30 30" fill="none" xmlns="http://www.w3.org/2000/svg" xmlns:xlink="http://www.w3.org/1999/xlink">
	<desc>
			Created with Pixso.
	</desc>
	<defs>
		<clipPath id="clip2055_409">
			<rect id="fi-rr-info" width="24.000000" height="24.000000" transform="translate(3.000000 3.000000)" fill="white" fill-opacity="0"/>
		</clipPath>
	</defs>
	<circle id="Ellipse 9" cx="15.000000" cy="15.000000" r="15.000000" fill="#FFFFFF" fill-opacity="1.000000"/>
	<rect id="fi-rr-info" width="24.000000" height="24.000000" transform="translate(3.000000 3.000000)" fill="#FFFFFF" fill-opacity="0"/>
	<g clip-path="url(#clip2055_409)">
		<path id="Vector" d="M15 3C12.62 3 10.3 3.7 8.33 5.02C6.35 6.34 4.82 8.21 3.91 10.4C3 12.6 2.76 15.01 3.23 17.34C3.69 19.66 4.83 21.8 6.51 23.48C8.19 25.16 10.33 26.3 12.65 26.76C14.98 27.23 17.39 26.99 19.59 26.08C21.78 25.17 23.65 23.64 24.97 21.66C26.29 19.69 27 17.37 27 15C26.99 11.81 25.73 8.76 23.48 6.51C21.23 4.26 18.18 3 15 3L15 3ZM15 25C13.02 25 11.08 24.41 9.44 23.31C7.79 22.21 6.51 20.65 5.76 18.82C5 17 4.8 14.98 5.19 13.04C5.57 11.1 6.53 9.32 7.92 7.92C9.32 6.53 11.1 5.57 13.04 5.19C14.98 4.8 17 5 18.82 5.76C20.65 6.51 22.21 7.79 23.31 9.44C24.41 11.08 25 13.02 25 15C24.99 17.65 23.94 20.19 22.06 22.06C20.19 23.94 17.65 24.99 15 25Z" fill="#FFFFFF" fill-opacity="1.000000" fill-rule="nonzero"/>
		<path id="Vector" d="M15 13L14 13C13.73 13 13.48 13.1 13.29 13.29C13.1 13.48 13 13.73 13 14C13 14.26 13.1 14.51 13.29 14.7C13.48 14.89 13.73 15 14 15L15 15L15 21C15 21.26 15.1 21.51 15.29 21.7C15.48 21.89 15.73 22 16 22C16.26 22 16.51 21.89 16.7 21.7C16.89 21.51 17 21.26 17 21L17 15C17 14.46 16.78 13.96 16.41 13.58C16.03 13.21 15.53 13 15 13Z" fill="#374957" fill-opacity="1.000000" fill-rule="nonzero"/>
		<path id="Vector" d="M16.5 9.5C16.5 10.32 15.82 11 15 11C14.17 11 13.5 10.32 13.5 9.5C13.5 8.67 14.17 8 15 8C15.82 8 16.5 8.67 16.5 9.5Z" fill="#374957" fill-opacity="1.000000" fill-rule="evenodd"/>
	</g>
</svg>
