<!-- icon666.com - MILLIONS vector ICONS FREE --><svg id="svg985" viewBox="0 0 12.7 12.7" xmlns="http://www.w3.org/2000/svg" xmlns:svg="http://www.w3.org/2000/svg"><g id="layer1" transform="translate(0 -284.3)"><path id="rect1048" d="m1.9821109 284.63603c-.1461214.001-.2634165.12105-.2619983.26717v.57412c.00765.34504.5215069.34504.5291666 0v-.0212c3.3656032.00053 6.7757358.00021 9.6583238-.002v.0227c0 .35313.529685.35313.529685 0v-.57412c.0016-.14918-.1206-.27007-.269751-.26717-.145311.003-.26136.12184-.259934.26717v.0253c-3.216897-.003-6.4394162-.002-9.6583238-.002v-.0238c0-.19827-.1355936-.26706-.2671683-.26706zm.032557 1.43919c-.210267 0-.2945686.12791-.2945686.28881-.00238 3.33187 0 6.69286 0 10.00818 0 .15501.1349508.2868.289388.2868h10.1130757c.18423.0388.348877-.12182.314712-.30696v-9.98802c0-.15401-.134954-.28887-.289388-.28887-3.371583-.008-6.7550985.00006-10.1332191.00006zm-1.48362992 0c-.3607858-.008-.3607858.53726 0 .52916h.02585c.00913 3.31444-.00876 6.68616.0005292 9.52551-.01778-.00018-.037634 0-.053745 0-.3446304.0255-.3180345.53936.02739.52917h.58187432c.3607859.008.3607859-.53727 0-.52917h-.0289375c.00331-3.31914.00185-6.68293.0005291-9.52551h.028422c.3607859.008.3607859-.53726 0-.52916zm2.09909572.52916h8.3560783l-.0041.64648c-.0016.14612.115358.26596.261482.26768l.664041.005v8.23877zm8.8847293 0h.39274v.38913l-.396357-.002zm-9.2655838.36742 8.1886478 8.08323c-.379137.27529-.4800018.66378-.4935114 1.07487h-6.7690947v-.65061c-.0005292-.14531-.118237-.26297-.2635515-.26354h-.6624902zm8.5731188 8.46305.70435.69505h-1.049549c-.04201-.33698.120661-.51466.345199-.69505zm-8.5731188.31006h.396875v.38499h-.396875z" font-variant-ligatures="normal" font-variant-position="normal" font-variant-caps="normal" font-variant-numeric="normal" font-variant-alternates="normal" font-feature-settings="normal" text-indent="0" text-align="start" text-decoration-line="none" text-decoration-style="solid" text-decoration-color="rgb(0,0,0)" text-transform="none" text-orientation="mixed" white-space="normal" shape-padding="0" isolation="auto" mix-blend-mode="normal" solid-color="rgb(0,0,0)" solid-opacity="1" vector-effect="none" fill="#000000" style="fill: rgb(255, 255, 255);"></path></g></svg>