<svg width="20" height="20" viewBox="0 0 20 20" fill="none" xmlns="http://www.w3.org/2000/svg">
<path d="M17.4993 8.98268V6.66602C17.4993 5.29102 16.3743 4.16602 14.9993 4.16602H11.666C11.0243 4.16602 10.441 4.41602 9.99935 4.81602C9.55768 4.41602 8.97435 4.16602 8.33268 4.16602H4.99935C3.62435 4.16602 2.49935 5.29102 2.49935 6.66602V8.98268C1.99102 9.44102 1.66602 10.0994 1.66602 10.8327V15.8327H3.33268V14.166H16.666V15.8327H18.3327V10.8327C18.3327 10.0994 18.0077 9.44102 17.4993 8.98268ZM11.666 5.83268H14.9993C15.4577 5.83268 15.8327 6.20768 15.8327 6.66602V8.33268H10.8327V6.66602C10.8327 6.20768 11.2077 5.83268 11.666 5.83268ZM4.16602 6.66602C4.16602 6.20768 4.54102 5.83268 4.99935 5.83268H8.33268C8.79102 5.83268 9.16602 6.20768 9.16602 6.66602V8.33268H4.16602V6.66602ZM3.33268 12.4994V10.8327C3.33268 10.3744 3.70768 9.99935 4.16602 9.99935H15.8327C16.291 9.99935 16.666 10.3744 16.666 10.8327V12.4994H3.33268Z" fill="white"/>
</svg>
