<svg width="20.000000" height="20.000000" viewBox="0 0 20 20" fill="none" xmlns="http://www.w3.org/2000/svg" xmlns:xlink="http://www.w3.org/1999/xlink">
	<desc>
			Created with Pixso.
	</desc>
	<defs>
		<clipPath id="clip2055_360">
			<rect id="Icon / Setting" width="20.000000" height="20.000000" fill="white" fill-opacity="0"/>
		</clipPath>
	</defs>
	<rect id="Icon / Setting" width="20.000000" height="20.000000" fill="#FFFFFF" fill-opacity="0"/>
	<g clip-path="url(#clip2055_360)">
		<path id="Union" d="M9.3418 5.17383C9.7207 3.93848 10.8711 3.04004 12.231 3.04004C13.5908 3.04004 14.7407 3.93848 15.1206 5.17285L17.2979 5.17285C17.7456 5.17285 18.0977 5.52539 18.0977 5.97363C18.0977 6.4209 17.7456 6.77344 17.2979 6.77344L15.1689 6.77344C14.8496 8.09961 13.6553 9.08496 12.231 9.08496C10.8066 9.08496 9.61328 8.09961 9.29297 6.77441L2.71973 6.77441C2.27148 6.77441 1.91992 6.42188 1.91992 5.97363C1.91992 5.52637 2.27148 5.17383 2.71973 5.17383L9.3418 5.17383ZM10.8086 6.0625C10.8086 5.27637 11.4453 4.63965 12.231 4.63965C13.0166 4.63965 13.6533 5.27637 13.6533 6.0625C13.6533 6.84766 13.0166 7.48438 12.231 7.48438C11.4453 7.48438 10.8086 6.84766 10.8086 6.0625Z" clip-rule="evenodd" fill="#5E5E5E" fill-opacity="1.000000" fill-rule="evenodd"/>
		<path id="Union" d="M10.6758 12.9961C10.2969 11.7607 9.14648 10.8623 7.78613 10.8623C6.42676 10.8623 5.27637 11.7607 4.89746 12.9951L2.71973 12.9951C2.27148 12.9951 1.91992 13.3477 1.91992 13.7959C1.91992 14.2432 2.27148 14.5957 2.71973 14.5957L4.84863 14.5957C5.16797 15.9219 6.3623 16.9072 7.78613 16.9072C9.21094 16.9072 10.4043 15.9219 10.7246 14.5967L17.2979 14.5967C17.7456 14.5967 18.0977 14.2441 18.0977 13.7959C18.0977 13.3486 17.7456 12.9961 17.2979 12.9961L10.6758 12.9961ZM9.20898 13.8848C9.20898 13.0986 8.57227 12.4619 7.78613 12.4619C7.00098 12.4619 6.36426 13.0986 6.36426 13.8848C6.36426 14.6699 7.00098 15.3066 7.78613 15.3066C8.57227 15.3066 9.20898 14.6699 9.20898 13.8848Z" clip-rule="evenodd" fill="#5E5E5E" fill-opacity="1.000000" fill-rule="evenodd"/>
	</g>
</svg>
