<svg width="8" height="9" viewBox="0 0 8 9" fill="none" xmlns="http://www.w3.org/2000/svg">
<path d="M7.01949 4.03758C7.01949 5.86204 3.7158 8.99311 3.7158 8.99311C3.7158 8.99311 0.412109 5.86204 0.412109 4.03758C0.412109 3.16138 0.760176 2.32108 1.37974 1.70151C1.9993 1.08195 2.83961 0.733887 3.7158 0.733887C4.59199 0.733887 5.4323 1.08195 6.05186 1.70151C6.67142 2.32108 7.01949 3.16138 7.01949 4.03758V4.03758Z" fill="url(#paint0_radial_2772_139)"/>
<path d="M3.71528 4.36806C3.84671 4.36806 3.97275 4.31585 4.06569 4.22292C4.15862 4.12998 4.21083 4.00394 4.21083 3.87251C4.21083 3.74108 4.15862 3.61503 4.06569 3.5221C3.97275 3.42916 3.84671 3.37695 3.71528 3.37695C3.58385 3.37695 3.45781 3.42916 3.36487 3.5221C3.27194 3.61503 3.21973 3.74108 3.21973 3.87251C3.21973 4.00394 3.27194 4.12998 3.36487 4.22292C3.45781 4.31585 3.58385 4.36806 3.71528 4.36806V4.36806Z" fill="white" stroke="white" stroke-width="1.37654" stroke-linecap="round" stroke-linejoin="round"/>
<defs>
<radialGradient id="paint0_radial_2772_139" cx="0" cy="0" r="1" gradientUnits="userSpaceOnUse" gradientTransform="translate(0.41211 -0.610638) rotate(60.2304) scale(11.0638 10.0785)">
<stop offset="0.046875" stop-color="#11CF74"/>
<stop offset="0.983052" stop-color="#08C7B0"/>
</radialGradient>
</defs>
</svg>
