<svg width="20" height="20" viewBox="0 0 20 20" fill="none" xmlns="http://www.w3.org/2000/svg">
<path d="M2.72083 16.4462L2.16442 17.0026L2.72083 16.4462C2.5583 16.2836 2.46699 16.0632 2.46699 15.8333V7.5C2.46699 7.27015 2.5583 7.04971 2.72083 6.88717C2.88336 6.72464 3.1038 6.63333 3.33366 6.63333H3.75033C4.13326 6.63333 4.51094 6.54418 4.85345 6.37292C5.19596 6.20167 5.4939 5.95302 5.72366 5.64667L7.48366 3.3H12.517L14.277 5.64667L14.917 5.16667L14.277 5.64667C14.5068 5.95302 14.8047 6.20167 15.1472 6.37292L15.505 5.65738L15.1472 6.37292C15.4897 6.54418 15.8674 6.63333 16.2503 6.63333H16.667C16.8968 6.63333 17.1173 6.72464 17.2798 6.88717C17.4423 7.04971 17.5337 7.27014 17.5337 7.5V15.8333C17.5337 16.0632 17.4423 16.2836 17.2798 16.4462C17.1173 16.6087 16.8968 16.7 16.667 16.7H3.33366C3.10381 16.7 2.88337 16.6087 2.72083 16.4462Z" stroke="#53587A" stroke-width="1.6" stroke-linecap="round" stroke-linejoin="round"/>
<path d="M11.7917 12.6247C11.3166 13.0998 10.6722 13.3667 10.0003 13.3667C9.32844 13.3667 8.68408 13.0998 8.20899 12.6247C7.7339 12.1496 7.46699 11.5052 7.46699 10.8333C7.46699 10.1615 7.7339 9.51709 8.20899 9.042C8.68408 8.5669 9.32844 8.3 10.0003 8.3C10.6722 8.3 11.3166 8.5669 11.7917 9.042C12.2668 9.51709 12.5337 10.1615 12.5337 10.8333C12.5337 11.5052 12.2668 12.1496 11.7917 12.6247Z" stroke="#53587A" stroke-width="1.6" stroke-linecap="round" stroke-linejoin="round"/>
</svg>
